<svg width="720" height="720" viewBox="0 0 720 720" fill="none" xmlns="http://www.w3.org/2000/svg">
<rect width="720" height="720" fill="#FF8D51"/>
<path d="M355.352 253.424V270.689H296.416V334.273H275V270.689H217.559V253.424H251.26C256.323 234.664 257.319 220.553 257.485 209.264H228.516V192.33H278.486V201.627C278.486 213.663 278.486 230.348 272.842 253.424H314.512C318.496 234.83 319.077 220.719 319.243 209.264H288.945V192.33H340.244V202.789C340.244 214.908 340.244 231.261 335.845 253.424H355.352ZM483.682 183.199V239.312H505.928V256.578H483.682V334.605H462.432V183.199H483.682ZM370.459 297.916V197.145H441.348V214.244H391.543V280.484C413.457 280.318 431.553 279.156 451.641 275.67L453.965 293.434C430.474 297.418 409.888 297.999 383.242 297.916H370.459ZM119.609 395.164C143.599 395.247 161.362 410.521 161.445 432.186C161.362 450.613 148.579 464.393 130.068 468.211V488.548C142.852 487.801 155.718 486.722 167.92 484.979L169.58 500.252C136.045 506.644 100.186 506.893 73.7891 506.893L71.2988 489.793C82.4219 489.793 95.3711 489.71 108.984 489.378V468.128C90.5566 464.31 77.5244 450.53 77.6074 432.186C77.5244 410.521 95.7861 395.247 119.609 395.164ZM98.6914 432.186C98.6084 443.89 107.656 451.194 119.609 451.111C131.646 451.194 140.776 443.89 140.859 432.186C140.776 420.149 131.646 413.343 119.609 413.26C107.656 413.343 98.6084 420.149 98.6914 432.186ZM176.553 537.605V386.199H197.637V537.605H176.553ZM272.676 409.939C272.593 428.284 283.301 445.882 307.207 453.27L295.918 469.705C279.897 464.393 268.691 454.1 262.217 440.901C255.659 456.092 243.955 468.045 226.689 473.855L215.234 457.254C240.469 448.87 251.26 428.782 251.426 407.947V394.168H272.676V409.939ZM236.152 508.055C236.069 489.71 256.074 478.836 287.949 478.836C319.243 478.836 338.833 489.71 338.916 508.055C338.833 526.565 319.243 537.356 287.949 537.273C256.074 537.356 236.069 526.565 236.152 508.055ZM257.402 508.055C257.236 516.604 268.11 520.672 287.949 520.672C307.539 520.672 317.998 516.604 317.998 508.055C317.998 499.837 307.539 495.438 287.949 495.438C268.11 495.438 257.236 499.837 257.402 508.055ZM316.172 475.848V386.199H337.422V421.561H357.842V439.158H337.422V475.848H316.172ZM411.631 432.186C411.631 455.096 419.849 478.089 441.348 489.627L429.727 505.066C416.113 498.094 407.065 485.892 401.753 471.199C396.523 487.22 387.476 500.75 373.779 508.719L361.66 492.781C383.491 480.164 391.543 455.511 391.709 432.186V428.699H367.305V411.766H391.709V391.346H411.465V411.766H435.371V428.699H411.631V432.186ZM426.572 460.74V443.475H444.336V388.689H464.258V530.301H444.336V460.74H426.572ZM475.049 537.273V386.199H495.137V537.273H475.049ZM635.088 399.48V417.078C635.005 439.075 635.005 459.993 628.115 492.781L607.031 490.789C610.02 478.255 611.763 467.132 612.842 456.922L525.186 461.238L522.529 444.305L613.921 440.984C614.253 432.684 614.336 424.881 614.336 417.078V416.414H527.178V399.48H635.088ZM511.406 519.178V501.912H649.199V519.178H511.406Z" fill="white"/>
</svg>
